<svg version="1.1" xmlns="http://www.w3.org/2000/svg" viewBox="0 0 748.6673859149294 356" width="748.6673859149294" height="356">
  <!-- svg-source:excalidraw -->
  
  <defs>
    <style class="style-fonts">
      @font-face {
        font-family: "Virgil";
        src: url("https://excalidraw.com/Virgil.woff2");
      }
      @font-face {
        font-family: "Cascadia";
        src: url("https://excalidraw.com/Cascadia.woff2");
      }
    </style>
  </defs>
  <rect x="0" y="0" width="748.6673859149294" height="356" fill="#ffffff"></rect><g stroke-linecap="round" transform="translate(10.002632580882619 84.22020206677274) rotate(2.045408488887218 30 32)"><path d="M14.87 3.12 C19.99 -0.55, 29.15 -1.84, 35.53 -0.24 C41.91 1.36, 49.06 7.29, 53.17 12.72 C57.28 18.15, 60.41 25.74, 60.2 32.35 C59.99 38.96, 56.16 47.08, 51.89 52.39 C47.62 57.71, 40.92 62.95, 34.58 64.24 C28.23 65.52, 19.38 63.64, 13.82 60.1 C8.26 56.57, 3.22 49.61, 1.22 43.04 C-0.77 36.48, -1.61 27.76, 1.84 20.73 C5.3 13.69, 17.66 4.28, 21.96 0.83 C26.25 -2.62, 27.51 -0.51, 27.62 0.01 M28.53 -0.87 C34.75 -1.78, 43.11 1.2, 48.11 5.53 C53.11 9.86, 56.84 18.33, 58.54 25.11 C60.25 31.89, 60.84 40.24, 58.32 46.21 C55.81 52.18, 49.33 58.29, 43.46 60.93 C37.59 63.56, 29.69 64.01, 23.12 62.03 C16.54 60.05, 8.03 54.42, 3.99 49.03 C-0.04 43.64, -1.72 36.54, -1.1 29.68 C-0.47 22.83, 3.15 12.64, 7.72 7.89 C12.28 3.15, 22.86 2.37, 26.3 1.23 C29.74 0.09, 27.9 0.57, 28.34 1.05" stroke="#000000" stroke-width="1" fill="none"></path></g><g transform="translate(29.079437690208124 98.59278506880321) rotate(2.045408488887218 10.709991455078125 17.5)"><text x="10.709991455078125" y="0" font-family="Virgil, Segoe UI Emoji" font-size="28px" fill="#000000" text-anchor="middle" style="white-space: pre;" direction="ltr" dominant-baseline="text-before-edge">h1</text></g><g stroke-linecap="round" transform="translate(526.6673859149294 85) rotate(0 34 32)"><path d="M41.41 0.48 C47.57 1.29, 54.05 5.05, 58.44 9.8 C62.83 14.55, 66.75 22.54, 67.74 28.97 C68.73 35.4, 67.68 43.18, 64.39 48.39 C61.11 53.59, 54.09 57.62, 48.03 60.21 C41.97 62.8, 34.36 64.96, 28.04 63.94 C21.72 62.92, 14.62 58.87, 10.11 54.09 C5.61 49.31, 1.92 41.53, 0.98 35.26 C0.05 28.99, 1.31 21.8, 4.51 16.47 C7.71 11.14, 13.82 5.84, 20.17 3.28 C26.52 0.72, 38.56 1.35, 42.61 1.1 C46.65 0.85, 44.65 1.11, 44.44 1.77 M35.86 -1.36 C42.16 -1.8, 48.73 2.36, 53.72 6.58 C58.72 10.81, 63.61 17.9, 65.83 23.97 C68.05 30.05, 69.16 37.08, 67.03 43.05 C64.9 49.01, 58.64 56.47, 53.06 59.78 C47.47 63.09, 39.93 63.38, 33.52 62.91 C27.1 62.43, 20.14 60.74, 14.58 56.91 C9.01 53.09, 1.98 46.02, 0.11 39.98 C-1.75 33.95, 1.17 26.56, 3.39 20.7 C5.62 14.84, 8.39 8.1, 13.44 4.84 C18.49 1.59, 30.07 2.1, 33.7 1.16 C37.32 0.22, 34.91 -1.03, 35.19 -0.78" stroke="#000000" stroke-width="1" fill="none"></path></g><g transform="translate(549.9157638995086 99.37258300203047) rotate(0 10.709991455078125 17.5)"><text x="10.709991455078125" y="0" font-family="Virgil, Segoe UI Emoji" font-size="28px" fill="#000000" text-anchor="middle" style="white-space: pre;" direction="ltr" dominant-baseline="text-before-edge">h1</text></g><g stroke-linecap="round" transform="translate(589.6673859149294 164) rotate(0 25.5 23)"><path d="M18.78 0.81 C23.74 -0.78, 32.07 0.24, 36.91 2.44 C41.74 4.63, 45.6 9.75, 47.78 14 C49.95 18.24, 51.29 23.12, 49.95 27.89 C48.61 32.66, 44.17 39.78, 39.71 42.62 C35.26 45.47, 28.66 45.65, 23.24 44.97 C17.82 44.29, 10.92 41.8, 7.2 38.53 C3.47 35.26, 1.5 30.06, 0.89 25.35 C0.27 20.64, 0.21 14.49, 3.5 10.26 C6.8 6.03, 17.3 1.62, 20.66 -0.03 C24.03 -1.67, 23.47 -0.21, 23.72 0.39 M22.08 1.54 C27.23 0.3, 32.87 1.27, 37.32 3.36 C41.77 5.45, 46.63 9.41, 48.8 14.07 C50.96 18.74, 52.22 26.52, 50.3 31.37 C48.39 36.21, 42.11 40.76, 37.33 43.13 C32.55 45.5, 26.87 46.43, 21.63 45.59 C16.4 44.75, 9.42 41.78, 5.92 38.08 C2.41 34.39, 0.48 28.55, 0.6 23.41 C0.72 18.26, 3.44 11.03, 6.61 7.22 C9.79 3.41, 17.18 1.67, 19.65 0.54 C22.12 -0.6, 21.03 0.24, 21.43 0.4" stroke="#000000" stroke-width="1" fill="none"></path></g><g stroke-linecap="round"><g transform="translate(70.05670750685726 107.97760185949028) rotate(0 101.42610152851825 -25.689437442393057)"><path d="M0.99 -0.41 C34.85 -8.49, 169.32 -41.07, 202.8 -49.18 M0.05 -1.67 C33.8 -10.04, 167.89 -42.75, 201.96 -50.97" stroke="#000000" stroke-width="1" fill="none"></path></g></g><mask></mask><g stroke-linecap="round"><g transform="translate(354.66738591492935 57.47880129531177) rotate(0 92.3635978731669 17.226760575569557)"><path d="M0.19 0.62 C30.62 6.45, 152.89 28.99, 183.55 34.55 M-1.17 -0.1 C29.57 5.43, 155.13 26.9, 185.89 32.83" stroke="#000000" stroke-width="1" fill="none"></path></g></g><mask></mask><g stroke-linecap="round"><g transform="translate(584.2873385179748 141.35233797104422) rotate(0 7.602666996121229 13.067186774047173)"><path d="M-0.84 0.95 C1.99 5.13, 13.18 21.67, 16.04 25.73 M0.92 0.4 C3.63 4.14, 12.44 19.37, 14.86 23.73" stroke="#000000" stroke-width="1" fill="none"></path></g></g><mask></mask><g stroke-linecap="round" transform="translate(86.66738591492935 148) rotate(0 32.5 32)"><path d="M32.78 -0.65 C38.84 -1.13, 47.39 1.76, 52.66 5.87 C57.93 9.98, 62.59 17.76, 64.4 24.03 C66.21 30.3, 65.9 37.61, 63.52 43.51 C61.15 49.41, 55.46 56.01, 50.15 59.43 C44.83 62.85, 37.91 64.49, 31.62 64.04 C25.33 63.59, 17.35 60.47, 12.41 56.74 C7.47 53.01, 3.75 47.71, 1.98 41.67 C0.22 35.63, -0.26 26.64, 1.82 20.5 C3.9 14.35, 8.96 8.04, 14.46 4.79 C19.96 1.55, 31 1.7, 34.81 1.02 C38.63 0.34, 37.39 0.21, 37.34 0.7 M39.53 2.52 C45.77 3.68, 54.96 8.31, 59.05 12.69 C63.14 17.07, 63.97 22.9, 64.06 28.81 C64.15 34.72, 62.87 42.71, 59.61 48.15 C56.34 53.59, 50.47 58.75, 44.46 61.45 C38.45 64.14, 29.57 66.03, 23.55 64.3 C17.52 62.56, 12.24 56.34, 8.33 51.03 C4.42 45.73, 0.62 38.57, 0.07 32.47 C-0.49 26.36, 1.77 19.23, 5.02 14.4 C8.27 9.58, 13.79 5.97, 19.56 3.51 C25.33 1.05, 36.03 -0.01, 39.62 -0.36 C43.2 -0.71, 41.07 0.57, 41.07 1.42" stroke="#000000" stroke-width="1" fill="none"></path></g><g transform="translate(102.30242809960873 162.37258300203047) rotate(0 16.883987426757812 17.5)"><text x="16.883987426757812" y="0" font-family="Virgil, Segoe UI Emoji" font-size="28px" fill="#000000" text-anchor="middle" style="white-space: pre;" direction="ltr" dominant-baseline="text-before-edge">h2</text></g><g stroke-linecap="round"><g transform="translate(64.10390962440124 136.86139456825424) rotate(0 13.743213444489356 11.346667741770318)"><path d="M-0.86 -0.39 C3.89 3.7, 23.59 20.11, 28.35 24.34 M0.89 -1.65 C5.55 2.08, 23.42 18.21, 27.75 22.33" stroke="#000000" stroke-width="1" fill="none"></path></g></g><mask></mask><g stroke-linecap="round" transform="translate(691.6673859149294 167) rotate(0 23.5 23)"><path d="M32.45 1.57 C37.02 2.77, 42.38 7.06, 44.75 11.51 C47.12 15.96, 47.88 23.36, 46.66 28.27 C45.44 33.19, 41.28 38.07, 37.43 41 C33.59 43.92, 28.7 45.89, 23.62 45.82 C18.54 45.76, 10.93 43.79, 6.94 40.63 C2.96 37.48, 0.33 31.96, -0.29 26.89 C-0.92 21.82, 0.35 14.35, 3.2 10.21 C6.04 6.07, 11.34 3.11, 16.75 2.05 C22.17 1, 32.22 3.36, 35.7 3.87 C39.17 4.38, 37.74 5.01, 37.58 5.1 M26.08 0.74 C30.49 1.33, 37.08 4.18, 40.51 7.84 C43.93 11.5, 46.56 18.01, 46.63 22.72 C46.71 27.42, 44.25 32.1, 40.96 36.07 C37.66 40.03, 31.75 45.45, 26.87 46.51 C21.98 47.57, 16.1 44.88, 11.64 42.41 C7.18 39.95, 1.83 36.46, 0.11 31.73 C-1.6 26.99, -0.47 18.81, 1.36 14.01 C3.18 9.21, 6.68 5.03, 11.07 2.9 C15.46 0.77, 24.83 1.52, 27.69 1.25 C30.55 0.98, 28.46 1.06, 28.21 1.29" stroke="#000000" stroke-width="1" fill="none"></path></g><g stroke-linecap="round"><g transform="translate(595.5826118439652 119.29542600648188) rotate(0 52.47901393200539 25.935935321799633)"><path d="M-0.52 -1.13 C16.94 7.5, 88.08 42.74, 105.48 51.44 M1.41 0.9 C18.68 9.75, 87.31 44.45, 104.78 53" stroke="#000000" stroke-width="1" fill="none"></path></g></g><mask></mask><g stroke-linecap="round" transform="translate(319.66738591492935 147) rotate(0 31 32)"><path d="M39.43 1.3 C45.51 2.92, 53.58 9.91, 57.18 15.84 C60.77 21.77, 61.84 30.28, 60.98 36.89 C60.13 43.5, 56.99 51.13, 52.05 55.5 C47.11 59.88, 37.98 62.79, 31.34 63.14 C24.7 63.49, 17.45 61.53, 12.21 57.6 C6.97 53.67, 1.29 46.35, -0.1 39.57 C-1.5 32.78, 0.66 22.94, 3.85 16.86 C7.05 10.79, 12.28 5.44, 19.06 3.14 C25.85 0.84, 39.46 2.39, 44.57 3.04 C49.68 3.7, 49.8 6.37, 49.71 7.07 M29.41 -1.36 C35.73 -2.03, 45.86 2.93, 51 7.47 C56.14 12.01, 59.08 19.36, 60.23 25.86 C61.38 32.36, 60.92 40.43, 57.9 46.45 C54.88 52.47, 48.32 59.36, 42.12 62 C35.93 64.63, 27.03 64.46, 20.73 62.28 C14.44 60.1, 7.83 54.7, 4.35 48.93 C0.86 43.16, -0.99 34.5, -0.19 27.68 C0.6 20.86, 4.15 12.68, 9.14 8.02 C14.12 3.35, 26.23 0.74, 29.73 -0.3 C33.23 -1.35, 29.97 1.27, 30.13 1.72" stroke="#000000" stroke-width="1" fill="none"></path></g><g transform="translate(333.8630882713885 161.37258300203047) rotate(0 16.883987426757812 17.5)"><text x="16.883987426757812" y="0" font-family="Virgil, Segoe UI Emoji" font-size="28px" fill="#000000" text-anchor="middle" style="white-space: pre;" direction="ltr" dominant-baseline="text-before-edge">h2</text></g><g stroke-linecap="round"><g transform="translate(71.00362385032918 115.73369436126791) rotate(0 124.97566816616757 24.254121339345318)"><path d="M-1.02 0.29 C40.82 8.46, 208.86 41.07, 250.97 49.11 M0.64 -0.61 C42.3 7.25, 208.13 39.7, 249.87 47.56" stroke="#000000" stroke-width="1" fill="none"></path></g></g><mask></mask><g stroke-linecap="round" transform="translate(166.16738591492935 263.5) rotate(0 25.5 23)"><path d="M25.7 0.47 C30.6 0.01, 36.43 1.23, 40.71 4.17 C44.98 7.11, 50.23 13.01, 51.36 18.11 C52.49 23.21, 50.08 30.45, 47.48 34.78 C44.88 39.11, 40.69 42.29, 35.73 44.09 C30.78 45.89, 23.21 47.18, 17.75 45.56 C12.29 43.94, 6.01 38.6, 2.98 34.38 C-0.04 30.16, -1.44 25.14, -0.4 20.26 C0.64 15.37, 4.42 8.38, 9.23 5.07 C14.04 1.75, 24.82 0.95, 28.46 0.38 C32.11 -0.19, 31.24 1.31, 31.1 1.66 M34.06 -0.49 C39.18 0.31, 43.18 5.36, 46.22 9.73 C49.26 14.1, 52.84 20.52, 52.3 25.74 C51.77 30.95, 47.15 37.44, 43 41.02 C38.85 44.61, 32.9 47.18, 27.39 47.23 C21.88 47.29, 14.48 44.28, 9.95 41.35 C5.42 38.42, 1.4 34.4, 0.21 29.66 C-0.99 24.91, 0.08 17.68, 2.77 12.88 C5.47 8.07, 11.18 2.79, 16.37 0.84 C21.57 -1.12, 31.28 1.03, 33.94 1.17 C36.6 1.3, 32.83 1.5, 32.32 1.62" stroke="#000000" stroke-width="1" fill="none"></path></g><g stroke-linecap="round"><g transform="translate(118.04443458274784 212.96238295275202) rotate(0 26.415743957764562 30.31039182178867)"><path d="M-0.06 1.15 C8.69 11.09, 43.11 50.42, 51.97 59.91 M-1.54 0.71 C7.64 10.29, 45.34 48.58, 54.38 58.29" stroke="#000000" stroke-width="1" fill="none"></path></g></g><mask></mask><g stroke-linecap="round" transform="translate(257.16738591492935 256.5) rotate(0 26.5 27)"><path d="M33.47 0.36 C38.86 1.56, 43.96 6.98, 47.37 11.63 C50.77 16.28, 54.11 22.47, 53.91 28.25 C53.72 34.03, 50.36 42.14, 46.18 46.31 C42 50.47, 34.66 52.58, 28.83 53.24 C23.01 53.9, 15.76 53.47, 11.24 50.28 C6.71 47.08, 3.18 39.69, 1.68 34.07 C0.17 28.44, 0.15 21.65, 2.19 16.52 C4.23 11.4, 8.21 5.72, 13.92 3.34 C19.64 0.96, 31.91 2.07, 36.49 2.25 C41.07 2.43, 41.39 3.87, 41.41 4.44 M15.99 3.15 C20.71 0.67, 27.07 0.63, 32.4 2.12 C37.72 3.61, 44.58 7.73, 47.93 12.09 C51.27 16.45, 52.92 22.52, 52.48 28.28 C52.04 34.04, 49.08 42.4, 45.3 46.66 C41.53 50.92, 35.16 53.55, 29.8 53.85 C24.44 54.16, 17.71 51.62, 13.15 48.49 C8.6 45.36, 4.31 40.38, 2.44 35.07 C0.58 29.76, 0.12 22.21, 1.97 16.64 C3.81 11.06, 11.51 4.05, 13.52 1.62 C15.54 -0.82, 13.83 1.18, 14.05 2.04" stroke="#000000" stroke-width="1" fill="none"></path></g><g stroke-linecap="round"><g transform="translate(148.8180690708126 196.98495223268958) rotate(0 56.770603938528666 34.809637775860494)"><path d="M0.56 -0.87 C19.32 10.72, 93.31 58.85, 111.99 70.49 M-0.61 1.29 C18.57 12.48, 95.45 57.44, 114.15 68.91" stroke="#000000" stroke-width="1" fill="none"></path></g></g><mask></mask><g stroke-linecap="round" transform="translate(385.16738591492935 260.5) rotate(0 25.5 23)"><path d="M27.16 -0.07 C32.21 0.25, 39.69 3.39, 43.7 6.95 C47.7 10.5, 50.68 16.31, 51.18 21.29 C51.69 26.26, 50.06 32.68, 46.74 36.81 C43.41 40.94, 36.69 44.97, 31.24 46.07 C25.79 47.17, 18.83 45.8, 14.03 43.39 C9.23 40.98, 4.49 35.92, 2.45 31.61 C0.42 27.3, 0.33 22.1, 1.82 17.53 C3.3 12.97, 6.46 7.15, 11.39 4.21 C16.31 1.27, 27.39 0.18, 31.36 -0.13 C35.34 -0.45, 35.24 1.75, 35.27 2.31 M26 1.27 C31.28 1.08, 38.57 3.87, 42.51 6.73 C46.45 9.59, 48.61 13.67, 49.62 18.44 C50.63 23.22, 51.09 30.85, 48.54 35.39 C46 39.94, 39.55 44.18, 34.36 45.72 C29.17 47.27, 22.81 46.49, 17.41 44.67 C12.02 42.85, 4.62 39, 2 34.8 C-0.61 30.6, 0.51 24.49, 1.73 19.46 C2.94 14.44, 5.06 7.71, 9.31 4.64 C13.55 1.57, 24.42 1.99, 27.2 1.06 C29.98 0.13, 26.06 -1.31, 26 -0.93" stroke="#000000" stroke-width="1" fill="none"></path></g><g stroke-linecap="round"><g transform="translate(358.93368742038433 210.87994346637566) rotate(0 18.482660158083604 26.567355167596475)"><path d="M0.24 0.97 C6.03 9.65, 29.82 43.08, 35.9 51.7 M-1.1 0.43 C4.95 9.26, 31.91 43.78, 38.07 52.7" stroke="#000000" stroke-width="1" fill="none"></path></g></g><mask></mask><g stroke-linecap="round" transform="translate(488.16738591492935 251.5) rotate(0 26.5 27)"><path d="M24.4 0.15 C29.84 -0.62, 37.66 1.84, 42.17 5.27 C46.69 8.71, 50.18 15.3, 51.49 20.76 C52.81 26.22, 52.35 33.05, 50.09 38.02 C47.83 42.99, 42.84 47.94, 37.92 50.57 C33 53.21, 26.03 55.13, 20.56 53.82 C15.09 52.51, 8.54 47.7, 5.11 42.72 C1.67 37.73, -0.57 29.67, -0.03 23.91 C0.5 18.16, 3.99 12.14, 8.31 8.21 C12.63 4.29, 22.87 1.69, 25.91 0.37 C28.95 -0.96, 26.49 -0.1, 26.54 0.28 M36.23 1.19 C41.49 3.02, 48.86 10.03, 51.65 15.58 C54.44 21.14, 54.37 28.9, 52.98 34.5 C51.59 40.09, 48.21 45.78, 43.3 49.16 C38.39 52.53, 29.18 55.05, 23.51 54.76 C17.84 54.48, 13.21 51.67, 9.26 47.44 C5.31 43.22, 0.43 35.17, -0.19 29.41 C-0.8 23.65, 2.37 17.87, 5.58 12.91 C8.8 7.94, 13.67 1.21, 19.09 -0.37 C24.5 -1.95, 35.06 2.76, 38.08 3.41 C41.1 4.06, 37.66 3.32, 37.21 3.52" stroke="#000000" stroke-width="1" fill="none"></path></g><g stroke-linecap="round"><g transform="translate(380.2925484067746 191.4755571504894) rotate(0 56.5555286614773 33.25368077658328)"><path d="M-0.21 -0.04 C19.11 11.4, 95.71 56.28, 114.9 67.61 M-1.78 -1.1 C17.47 10.05, 94.64 54.48, 113.97 65.65" stroke="#000000" stroke-width="1" fill="none"></path></g></g><mask></mask><g stroke-linecap="round" transform="translate(273.66738591492935 10) rotate(0 40 27)"><path d="M13.5 0 M13.5 0 C33.69 0.83, 56.78 1.29, 66.5 0 M13.5 0 C25.47 0.48, 37.05 -0.82, 66.5 0 M66.5 0 C74.25 -1.46, 78.08 6.16, 80 13.5 M66.5 0 C77.01 1.04, 79.25 6.76, 80 13.5 M80 13.5 C80.58 17.07, 80.74 25.35, 80 40.5 M80 13.5 C80.99 21.91, 81.02 32.36, 80 40.5 M80 40.5 C79.13 51.02, 74.13 55.25, 66.5 54 M80 40.5 C81.83 50.78, 76.08 55.22, 66.5 54 M66.5 54 C48.49 53.43, 32.45 55.65, 13.5 54 M66.5 54 C47.22 53.46, 28.23 53.63, 13.5 54 M13.5 54 C3.17 52.36, -1.06 51.25, 0 40.5 M13.5 54 C5.88 53.54, 1.62 48.59, 0 40.5 M0 40.5 C-0.91 33.04, -0.93 25.67, 0 13.5 M0 40.5 C0.17 30.25, -0.38 20.95, 0 13.5 M0 13.5 C1.48 3.04, 4.54 -1.2, 13.5 0 M0 13.5 C1.55 4.39, 5.44 -0.55, 13.5 0" stroke="#000000" stroke-width="1" fill="none"></path></g><g transform="translate(291.0994003802614 19.5) rotate(0 22.56798553466797 17.5)"><text x="22.56798553466797" y="0" font-family="Virgil, Segoe UI Emoji" font-size="28px" fill="#000000" text-anchor="middle" style="white-space: pre;" direction="ltr" dominant-baseline="text-before-edge">top</text></g><g stroke-linecap="round"><g transform="translate(62.667385914929355 81) rotate(0 225.2413782475889 3.4081772008675557)"><path d="M0.24 0.58 C14.12 -1.45, 43.29 -12.39, 83.85 -12.2 C124.41 -12.02, 203.6 -1.83, 243.6 1.71 C283.59 5.25, 289.15 5.94, 323.81 9.06 C358.48 12.17, 430.29 18.41, 451.58 20.4 M-1.1 -0.16 C12.66 -2.56, 42.65 -14.72, 83.37 -14.17 C124.08 -13.62, 203.16 -0.35, 243.17 3.14 C283.19 6.63, 288.92 3.81, 323.46 6.79 C358 9.77, 429.39 18.72, 450.41 21.01" stroke="#e03131" stroke-width="2" fill="none"></path></g><g transform="translate(62.667385914929355 81) rotate(0 225.2413782475889 3.4081772008675557)"><path d="M422.19 29.42 C431.75 26.58, 441.63 21.22, 451.34 21.97 M421.07 28.58 C430.21 26.14, 439.74 23.46, 450.27 20.68" stroke="#e03131" stroke-width="2" fill="none"></path></g><g transform="translate(62.667385914929355 81) rotate(0 225.2413782475889 3.4081772008675557)"><path d="M424.56 9.04 C433.3 13.2, 442.36 14.85, 451.34 21.97 M423.44 8.2 C431.89 12.57, 440.63 16.69, 450.27 20.68" stroke="#e03131" stroke-width="2" fill="none"></path></g></g><mask></mask><g stroke-linecap="round"><g transform="translate(523.6673859149294 141) rotate(0 -190.44759162478152 -7.819970275794617)"><path d="M1.12 0.17 C-15.97 1.06, -55.9 10.52, -101.85 6.51 C-147.8 2.49, -227.89 -23.35, -274.58 -23.93 C-321.28 -24.51, -364.19 -1.33, -382.02 3.04 M0.26 -0.78 C-16.52 0.73, -53.58 11.2, -99.56 7.52 C-145.54 3.85, -228.59 -22.28, -275.63 -22.84 C-322.66 -23.4, -363.92 -0.03, -381.78 4.16" stroke="#e03131" stroke-width="2" fill="none"></path></g><g transform="translate(523.6673859149294 141) rotate(0 -190.44759162478152 -7.819970275794617)"><path d="M-358.37 -16.29 C-368.47 -8.72, -375.88 -0.97, -381.72 4.89 M-358.07 -15.14 C-364.45 -10.84, -369.36 -5.87, -381.78 3.89" stroke="#e03131" stroke-width="2" fill="none"></path></g><g transform="translate(523.6673859149294 141) rotate(0 -190.44759162478152 -7.819970275794617)"><path d="M-351.5 3.05 C-364.27 3.7, -374.15 4.47, -381.72 4.89 M-351.2 4.2 C-359.16 3.84, -365.73 4.14, -381.78 3.89" stroke="#e03131" stroke-width="2" fill="none"></path></g></g><mask></mask><g stroke-linecap="round"><g transform="translate(172.66738591492924 181.00000000000006) rotate(0 62.63132124133415 0.7668722078111045)"><path d="M-0.39 -0.95 C20.37 -0.92, 104.76 0.76, 125.65 0.96 M1.61 1.17 C22.08 1.33, 103.57 2.47, 124.52 2.48" stroke="#e03131" stroke-width="2" fill="none"></path></g><g transform="translate(172.66738591492924 181.00000000000006) rotate(0 62.63132124133415 0.7668722078111045)"><path d="M94.67 11.93 C107.21 6.95, 117.2 4.22, 126.2 1.93 M96.88 11.79 C104.21 8.46, 112.82 7.09, 124.1 2.19" stroke="#e03131" stroke-width="2" fill="none"></path></g><g transform="translate(172.66738591492924 181.00000000000006) rotate(0 62.63132124133415 0.7668722078111045)"><path d="M94.84 -8.59 C107.45 -5.52, 117.37 -0.21, 126.2 1.93 M97.04 -8.73 C104.23 -5.76, 112.79 -0.83, 124.1 2.19" stroke="#e03131" stroke-width="2" fill="none"></path></g></g><mask></mask><g transform="translate(496.66738591492935 301) rotate(0 10.763999938964844 22.5)"><text x="0" y="0" font-family="Virgil, Segoe UI Emoji" font-size="36px" fill="#e03131" text-anchor="start" style="white-space: pre;" direction="ltr" dominant-baseline="text-before-edge">X</text></g><g stroke-linecap="round"><g transform="translate(390.6186230458768 183.5) rotate(0 91.56496435590088 0.8345030252542358)"><path d="M-0.73 -0.14 C29.79 0.27, 153.04 2.54, 183.86 2.93 M1.09 -1.26 C31.38 -1.21, 152.43 0.48, 182.84 1.3" stroke="#e03131" stroke-width="2" fill="none"></path></g><g transform="translate(390.6186230458768 183.5) rotate(0 91.56496435590088 0.8345030252542358)"><path d="M154.22 10.78 C166.19 8.01, 175.21 6.05, 184.03 -0.08 M153.65 10.18 C163.67 7.13, 174.54 4.13, 183.07 0.59" stroke="#e03131" stroke-width="2" fill="none"></path></g><g transform="translate(390.6186230458768 183.5) rotate(0 91.56496435590088 0.8345030252542358)"><path d="M154.62 -9.74 C166.51 -5.13, 175.4 0.29, 184.03 -0.08 M154.04 -10.33 C163.85 -6.04, 174.58 -1.7, 183.07 0.59" stroke="#e03131" stroke-width="2" fill="none"></path></g></g><mask></mask><g stroke-linecap="round"><g transform="translate(616.6186230458768 157.5) rotate(0 45.626864562789024 -9.433711387098043)"><path d="M-0.3 -0.58 C7.41 -3.92, 31.13 -20.68, 46.03 -20.6 C60.94 -20.52, 81.76 -3.37, 89.12 -0.11 M1.75 1.73 C9.41 -1.41, 30.66 -18.76, 45.63 -19.38 C60.59 -20, 84.07 -5.21, 91.55 -1.98" stroke="#e03131" stroke-width="2" fill="none"></path></g><g transform="translate(616.6186230458768 157.5) rotate(0 45.626864562789024 -9.433711387098043)"><path d="M66.34 -3.25 C73.12 -5.54, 82.42 -2.96, 91.45 -1.08 M67.49 -5.72 C71.87 -4.8, 76.45 -3.61, 91.7 -2.48" stroke="#e03131" stroke-width="2" fill="none"></path></g><g transform="translate(616.6186230458768 157.5) rotate(0 45.626864562789024 -9.433711387098043)"><path d="M73.94 -18.13 C78.5 -16.26, 85.67 -9.49, 91.45 -1.08 M75.08 -20.61 C78.06 -16.73, 81.12 -12.56, 91.7 -2.48" stroke="#e03131" stroke-width="2" fill="none"></path></g></g><mask></mask><g stroke-linecap="round"><g transform="translate(701.2620336893085 221.5539030345879) rotate(0 -250.62794201885322 16.726412830003028)"><path d="M-0.59 0.27 C-12.57 5.75, -4.41 32.58, -71.77 33.02 C-139.13 33.47, -332.97 3.01, -404.77 2.94 C-476.57 2.87, -486.24 27.65, -502.55 32.59 M1.3 -0.63 C-10.77 4.95, -4.44 33.79, -72.26 34.08 C-140.08 34.37, -333.94 1.74, -405.6 1.12 C-477.27 0.5, -485.83 25.01, -502.26 30.37" stroke="#e03131" stroke-width="2" fill="none"></path></g><g transform="translate(701.2620336893085 221.5539030345879) rotate(0 -250.62794201885322 16.726412830003028)"><path d="M-482.97 8.48 C-490.73 13.9, -493.33 21.45, -501.19 30.31 M-484.23 7.69 C-489.55 14.42, -496.54 23.09, -501.59 30.51" stroke="#e03131" stroke-width="2" fill="none"></path></g><g transform="translate(701.2620336893085 221.5539030345879) rotate(0 -250.62794201885322 16.726412830003028)"><path d="M-472.37 26.05 C-483.41 26.01, -489.28 28.15, -501.19 30.31 M-473.63 25.26 C-482.6 25.76, -493.31 28.27, -501.59 30.51" stroke="#e03131" stroke-width="2" fill="none"></path></g></g><mask></mask><g stroke-linecap="round"><g transform="translate(224.6186230458768 286.5) rotate(0 11.506076888367488 0.6357583494645667)"><path d="M-1.01 0.7 C3.08 1.07, 19.82 1.62, 24.03 1.57 M0.65 0.03 C4.64 0.09, 19.28 -0.48, 23.09 -0.25" stroke="#e03131" stroke-width="2" fill="none"></path></g><g transform="translate(224.6186230458768 286.5) rotate(0 11.506076888367488 0.6357583494645667)"><path d="M12.49 3.83 C15.24 3.08, 16.93 2.12, 23.89 -1.36 M11.49 3.86 C14.46 2.31, 17.86 1.45, 22.86 0" stroke="#e03131" stroke-width="2" fill="none"></path></g><g transform="translate(224.6186230458768 286.5) rotate(0 11.506076888367488 0.6357583494645667)"><path d="M12.53 -4.39 C15.23 -3.05, 16.91 -1.94, 23.89 -1.36 M11.54 -4.35 C14.54 -3.87, 17.93 -2.69, 22.86 0" stroke="#e03131" stroke-width="2" fill="none"></path></g></g><mask></mask><g stroke-linecap="round"><g transform="translate(315.6186230458768 280.5) rotate(0 29.829912988469005 1.2914568936079718)"><path d="M-0.47 0.5 C9.39 0.84, 50.24 1.33, 60.13 1.56 M1.49 -0.29 C11.2 0.27, 50.36 2.29, 59.77 2.87" stroke="#e03131" stroke-width="2" fill="none"></path></g><g transform="translate(315.6186230458768 280.5) rotate(0 29.829912988469005 1.2914568936079718)"><path d="M32.34 13.28 C41.62 7.98, 53 3.94, 61.23 2.12 M31.59 12.09 C43.01 8.41, 53.4 3.82, 58.87 3.14" stroke="#e03131" stroke-width="2" fill="none"></path></g><g transform="translate(315.6186230458768 280.5) rotate(0 29.829912988469005 1.2914568936079718)"><path d="M33.47 -6.88 C42.22 -4.49, 53.18 -0.83, 61.23 2.12 M32.72 -8.06 C43.82 -3.76, 53.76 -0.36, 58.87 3.14" stroke="#e03131" stroke-width="2" fill="none"></path></g></g><mask></mask><g stroke-linecap="round"><g transform="translate(442.6186230458768 282.5) rotate(0 17.81297595687215 -0.6164077326096447)"><path d="M-0.7 -1.08 C5.23 -1.05, 30.3 -0.22, 36.32 -0.4 M1.14 0.97 C6.87 0.69, 30 -1.8, 35.54 -2.2" stroke="#e03131" stroke-width="2" fill="none"></path></g><g transform="translate(442.6186230458768 282.5) rotate(0 17.81297595687215 -0.6164077326096447)"><path d="M17.64 5.96 C26.1 1.99, 29.37 1.15, 36.51 -1.09 M19.47 4.91 C25.66 2.47, 31.47 -1.21, 36.03 -2.87" stroke="#e03131" stroke-width="2" fill="none"></path></g><g transform="translate(442.6186230458768 282.5) rotate(0 17.81297595687215 -0.6164077326096447)"><path d="M16.51 -6.3 C25.32 -5.83, 29.01 -2.23, 36.51 -1.09 M18.34 -7.35 C25 -4.89, 31.26 -3.68, 36.03 -2.87" stroke="#e03131" stroke-width="2" fill="none"></path></g></g><mask></mask></svg>