<svg version="1.1" xmlns="http://www.w3.org/2000/svg" viewBox="0 0 750.6673859149294 341.0816367969476" width="750.6673859149294" height="341.0816367969476">
  <!-- svg-source:excalidraw -->
  
  <defs>
    <style class="style-fonts">
      @font-face {
        font-family: "Virgil";
        src: url("https://excalidraw.com/Virgil.woff2");
      }
      @font-face {
        font-family: "Cascadia";
        src: url("https://excalidraw.com/Cascadia.woff2");
      }
    </style>
  </defs>
  <rect x="0" y="0" width="750.6673859149294" height="341.0816367969476" fill="#ffffff"></rect><g stroke-linecap="round" transform="translate(10.002632580882619 84.22020206677274) rotate(2.045408488887218 30 32)"><path d="M14.87 3.12 C19.99 -0.55, 29.15 -1.84, 35.53 -0.24 C41.91 1.36, 49.06 7.29, 53.17 12.72 C57.28 18.15, 60.41 25.74, 60.2 32.35 C59.99 38.96, 56.16 47.08, 51.89 52.39 C47.62 57.71, 40.92 62.95, 34.58 64.24 C28.23 65.52, 19.38 63.64, 13.82 60.1 C8.26 56.57, 3.22 49.61, 1.22 43.04 C-0.77 36.48, -1.61 27.76, 1.84 20.73 C5.3 13.69, 17.66 4.28, 21.96 0.83 C26.25 -2.62, 27.51 -0.51, 27.62 0.01 M28.53 -0.87 C34.75 -1.78, 43.11 1.2, 48.11 5.53 C53.11 9.86, 56.84 18.33, 58.54 25.11 C60.25 31.89, 60.84 40.24, 58.32 46.21 C55.81 52.18, 49.33 58.29, 43.46 60.93 C37.59 63.56, 29.69 64.01, 23.12 62.03 C16.54 60.05, 8.03 54.42, 3.99 49.03 C-0.04 43.64, -1.72 36.54, -1.1 29.68 C-0.47 22.83, 3.15 12.64, 7.72 7.89 C12.28 3.15, 22.86 2.37, 26.3 1.23 C29.74 0.09, 27.9 0.57, 28.34 1.05" stroke="#000000" stroke-width="1" fill="none"></path></g><g transform="translate(29.079437690208124 98.59278506880321) rotate(2.045408488887218 10.709991455078125 17.5)"><text x="10.709991455078125" y="0" font-family="Virgil, Segoe UI Emoji" font-size="28px" fill="#000000" text-anchor="middle" style="white-space: pre;" direction="ltr" dominant-baseline="text-before-edge">h1</text></g><g stroke-linecap="round" transform="translate(526.6673859149294 85) rotate(0 34 32)"><path d="M41.41 0.48 C47.57 1.29, 54.05 5.05, 58.44 9.8 C62.83 14.55, 66.75 22.54, 67.74 28.97 C68.73 35.4, 67.68 43.18, 64.39 48.39 C61.11 53.59, 54.09 57.62, 48.03 60.21 C41.97 62.8, 34.36 64.96, 28.04 63.94 C21.72 62.92, 14.62 58.87, 10.11 54.09 C5.61 49.31, 1.92 41.53, 0.98 35.26 C0.05 28.99, 1.31 21.8, 4.51 16.47 C7.71 11.14, 13.82 5.84, 20.17 3.28 C26.52 0.72, 38.56 1.35, 42.61 1.1 C46.65 0.85, 44.65 1.11, 44.44 1.77 M35.86 -1.36 C42.16 -1.8, 48.73 2.36, 53.72 6.58 C58.72 10.81, 63.61 17.9, 65.83 23.97 C68.05 30.05, 69.16 37.08, 67.03 43.05 C64.9 49.01, 58.64 56.47, 53.06 59.78 C47.47 63.09, 39.93 63.38, 33.52 62.91 C27.1 62.43, 20.14 60.74, 14.58 56.91 C9.01 53.09, 1.98 46.02, 0.11 39.98 C-1.75 33.95, 1.17 26.56, 3.39 20.7 C5.62 14.84, 8.39 8.1, 13.44 4.84 C18.49 1.59, 30.07 2.1, 33.7 1.16 C37.32 0.22, 34.91 -1.03, 35.19 -0.78" stroke="#000000" stroke-width="1" fill="none"></path></g><g transform="translate(549.9157638995086 99.37258300203047) rotate(0 10.709991455078125 17.5)"><text x="10.709991455078125" y="0" font-family="Virgil, Segoe UI Emoji" font-size="28px" fill="#000000" text-anchor="middle" style="white-space: pre;" direction="ltr" dominant-baseline="text-before-edge">h1</text></g><g stroke-linecap="round" transform="translate(603.6673859149294 184) rotate(0 25.5 23)"><path d="M18.78 0.81 C23.74 -0.78, 32.07 0.24, 36.91 2.44 C41.74 4.63, 45.6 9.75, 47.78 14 C49.95 18.24, 51.29 23.12, 49.95 27.89 C48.61 32.66, 44.17 39.78, 39.71 42.62 C35.26 45.47, 28.66 45.65, 23.24 44.97 C17.82 44.29, 10.92 41.8, 7.2 38.53 C3.47 35.26, 1.5 30.06, 0.89 25.35 C0.27 20.64, 0.21 14.49, 3.5 10.26 C6.8 6.03, 17.3 1.62, 20.66 -0.03 C24.03 -1.67, 23.47 -0.21, 23.72 0.39 M22.08 1.54 C27.23 0.3, 32.87 1.27, 37.32 3.36 C41.77 5.45, 46.63 9.41, 48.8 14.07 C50.96 18.74, 52.22 26.52, 50.3 31.37 C48.39 36.21, 42.11 40.76, 37.33 43.13 C32.55 45.5, 26.87 46.43, 21.63 45.59 C16.4 44.75, 9.42 41.78, 5.92 38.08 C2.41 34.39, 0.48 28.55, 0.6 23.41 C0.72 18.26, 3.44 11.03, 6.61 7.22 C9.79 3.41, 17.18 1.67, 19.65 0.54 C22.12 -0.6, 21.03 0.24, 21.43 0.4" stroke="#000000" stroke-width="1" fill="none"></path></g><g stroke-linecap="round"><g transform="translate(70.05670750685726 107.97760185949028) rotate(0 101.42610152851825 -25.689437442393057)"><path d="M0.99 -0.41 C34.85 -8.49, 169.32 -41.07, 202.8 -49.18 M0.05 -1.67 C33.8 -10.04, 167.89 -42.75, 201.96 -50.97" stroke="#000000" stroke-width="1" fill="none"></path></g></g><mask></mask><g stroke-linecap="round"><g transform="translate(354.66738591492935 57.47880129531177) rotate(0 92.3635978731669 17.226760575569557)"><path d="M0.19 0.62 C30.62 6.45, 152.89 28.99, 183.55 34.55 M-1.17 -0.1 C29.57 5.43, 155.13 26.9, 185.89 32.83" stroke="#000000" stroke-width="1" fill="none"></path></g></g><mask></mask><g stroke-linecap="round"><g transform="translate(584.8099910258413 141.61673518632432) rotate(0 14.260466171886492 22.982747161100832)"><path d="M-0.84 0.95 C4.2 8.43, 24.28 38.2, 29.36 45.56 M0.92 0.4 C5.85 7.44, 23.53 35.9, 28.18 43.56" stroke="#000000" stroke-width="1" fill="none"></path></g></g><mask></mask><g stroke-linecap="round" transform="translate(86.66738591492935 148) rotate(0 32.5 32)"><path d="M32.78 -0.65 C38.84 -1.13, 47.39 1.76, 52.66 5.87 C57.93 9.98, 62.59 17.76, 64.4 24.03 C66.21 30.3, 65.9 37.61, 63.52 43.51 C61.15 49.41, 55.46 56.01, 50.15 59.43 C44.83 62.85, 37.91 64.49, 31.62 64.04 C25.33 63.59, 17.35 60.47, 12.41 56.74 C7.47 53.01, 3.75 47.71, 1.98 41.67 C0.22 35.63, -0.26 26.64, 1.82 20.5 C3.9 14.35, 8.96 8.04, 14.46 4.79 C19.96 1.55, 31 1.7, 34.81 1.02 C38.63 0.34, 37.39 0.21, 37.34 0.7 M39.53 2.52 C45.77 3.68, 54.96 8.31, 59.05 12.69 C63.14 17.07, 63.97 22.9, 64.06 28.81 C64.15 34.72, 62.87 42.71, 59.61 48.15 C56.34 53.59, 50.47 58.75, 44.46 61.45 C38.45 64.14, 29.57 66.03, 23.55 64.3 C17.52 62.56, 12.24 56.34, 8.33 51.03 C4.42 45.73, 0.62 38.57, 0.07 32.47 C-0.49 26.36, 1.77 19.23, 5.02 14.4 C8.27 9.58, 13.79 5.97, 19.56 3.51 C25.33 1.05, 36.03 -0.01, 39.62 -0.36 C43.2 -0.71, 41.07 0.57, 41.07 1.42" stroke="#000000" stroke-width="1" fill="none"></path></g><g transform="translate(102.30242809960873 162.37258300203047) rotate(0 16.883987426757812 17.5)"><text x="16.883987426757812" y="0" font-family="Virgil, Segoe UI Emoji" font-size="28px" fill="#000000" text-anchor="middle" style="white-space: pre;" direction="ltr" dominant-baseline="text-before-edge">h2</text></g><g stroke-linecap="round"><g transform="translate(64.10390962440124 136.86139456825424) rotate(0 13.743213444489356 11.346667741770318)"><path d="M-0.86 -0.39 C3.89 3.7, 23.59 20.11, 28.35 24.34 M0.89 -1.65 C5.55 2.08, 23.42 18.21, 27.75 22.33" stroke="#000000" stroke-width="1" fill="none"></path></g></g><mask></mask><g stroke-linecap="round" transform="translate(693.6673859149294 186) rotate(0 23.5 23)"><path d="M32.45 1.57 C37.02 2.77, 42.38 7.06, 44.75 11.51 C47.12 15.96, 47.88 23.36, 46.66 28.27 C45.44 33.19, 41.28 38.07, 37.43 41 C33.59 43.92, 28.7 45.89, 23.62 45.82 C18.54 45.76, 10.93 43.79, 6.94 40.63 C2.96 37.48, 0.33 31.96, -0.29 26.89 C-0.92 21.82, 0.35 14.35, 3.2 10.21 C6.04 6.07, 11.34 3.11, 16.75 2.05 C22.17 1, 32.22 3.36, 35.7 3.87 C39.17 4.38, 37.74 5.01, 37.58 5.1 M26.08 0.74 C30.49 1.33, 37.08 4.18, 40.51 7.84 C43.93 11.5, 46.56 18.01, 46.63 22.72 C46.71 27.42, 44.25 32.1, 40.96 36.07 C37.66 40.03, 31.75 45.45, 26.87 46.51 C21.98 47.57, 16.1 44.88, 11.64 42.41 C7.18 39.95, 1.83 36.46, 0.11 31.73 C-1.6 26.99, -0.47 18.81, 1.36 14.01 C3.18 9.21, 6.68 5.03, 11.07 2.9 C15.46 0.77, 24.83 1.52, 27.69 1.25 C30.55 0.98, 28.46 1.06, 28.21 1.29" stroke="#000000" stroke-width="1" fill="none"></path></g><g stroke-linecap="round"><g transform="translate(596.1876807272981 122.40666988848352) rotate(0 54.126863968964585 33.25663471832928)"><path d="M-0.52 -1.13 C17.49 9.94, 90.82 54.94, 108.78 66.09 M1.41 0.9 C19.23 12.19, 90.06 56.65, 108.07 67.64" stroke="#000000" stroke-width="1" fill="none"></path></g></g><mask></mask><g stroke-linecap="round" transform="translate(319.66738591492935 147) rotate(0 31 32)"><path d="M39.43 1.3 C45.51 2.92, 53.58 9.91, 57.18 15.84 C60.77 21.77, 61.84 30.28, 60.98 36.89 C60.13 43.5, 56.99 51.13, 52.05 55.5 C47.11 59.88, 37.98 62.79, 31.34 63.14 C24.7 63.49, 17.45 61.53, 12.21 57.6 C6.97 53.67, 1.29 46.35, -0.1 39.57 C-1.5 32.78, 0.66 22.94, 3.85 16.86 C7.05 10.79, 12.28 5.44, 19.06 3.14 C25.85 0.84, 39.46 2.39, 44.57 3.04 C49.68 3.7, 49.8 6.37, 49.71 7.07 M29.41 -1.36 C35.73 -2.03, 45.86 2.93, 51 7.47 C56.14 12.01, 59.08 19.36, 60.23 25.86 C61.38 32.36, 60.92 40.43, 57.9 46.45 C54.88 52.47, 48.32 59.36, 42.12 62 C35.93 64.63, 27.03 64.46, 20.73 62.28 C14.44 60.1, 7.83 54.7, 4.35 48.93 C0.86 43.16, -0.99 34.5, -0.19 27.68 C0.6 20.86, 4.15 12.68, 9.14 8.02 C14.12 3.35, 26.23 0.74, 29.73 -0.3 C33.23 -1.35, 29.97 1.27, 30.13 1.72" stroke="#000000" stroke-width="1" fill="none"></path></g><g transform="translate(333.8630882713885 161.37258300203047) rotate(0 16.883987426757812 17.5)"><text x="16.883987426757812" y="0" font-family="Virgil, Segoe UI Emoji" font-size="28px" fill="#000000" text-anchor="middle" style="white-space: pre;" direction="ltr" dominant-baseline="text-before-edge">h2</text></g><g stroke-linecap="round"><g transform="translate(71.00362385032918 115.73369436126791) rotate(0 124.97566816616757 24.254121339345318)"><path d="M-1.02 0.29 C40.82 8.46, 208.86 41.07, 250.97 49.11 M0.64 -0.61 C42.3 7.25, 208.13 39.7, 249.87 47.56" stroke="#000000" stroke-width="1" fill="none"></path></g></g><mask></mask><g stroke-linecap="round" transform="translate(166.16738591492935 263.5) rotate(0 25.5 23)"><path d="M25.7 0.47 C30.6 0.01, 36.43 1.23, 40.71 4.17 C44.98 7.11, 50.23 13.01, 51.36 18.11 C52.49 23.21, 50.08 30.45, 47.48 34.78 C44.88 39.11, 40.69 42.29, 35.73 44.09 C30.78 45.89, 23.21 47.18, 17.75 45.56 C12.29 43.94, 6.01 38.6, 2.98 34.38 C-0.04 30.16, -1.44 25.14, -0.4 20.26 C0.64 15.37, 4.42 8.38, 9.23 5.07 C14.04 1.75, 24.82 0.95, 28.46 0.38 C32.11 -0.19, 31.24 1.31, 31.1 1.66 M34.06 -0.49 C39.18 0.31, 43.18 5.36, 46.22 9.73 C49.26 14.1, 52.84 20.52, 52.3 25.74 C51.77 30.95, 47.15 37.44, 43 41.02 C38.85 44.61, 32.9 47.18, 27.39 47.23 C21.88 47.29, 14.48 44.28, 9.95 41.35 C5.42 38.42, 1.4 34.4, 0.21 29.66 C-0.99 24.91, 0.08 17.68, 2.77 12.88 C5.47 8.07, 11.18 2.79, 16.37 0.84 C21.57 -1.12, 31.28 1.03, 33.94 1.17 C36.6 1.3, 32.83 1.5, 32.32 1.62" stroke="#000000" stroke-width="1" fill="none"></path></g><g stroke-linecap="round"><g transform="translate(118.04443458274784 212.96238295275202) rotate(0 26.415743957764562 30.31039182178867)"><path d="M-0.06 1.15 C8.69 11.09, 43.11 50.42, 51.97 59.91 M-1.54 0.71 C7.64 10.29, 45.34 48.58, 54.38 58.29" stroke="#000000" stroke-width="1" fill="none"></path></g></g><mask></mask><g stroke-linecap="round" transform="translate(257.16738591492935 256.5) rotate(0 26.5 27)"><path d="M33.47 0.36 C38.86 1.56, 43.96 6.98, 47.37 11.63 C50.77 16.28, 54.11 22.47, 53.91 28.25 C53.72 34.03, 50.36 42.14, 46.18 46.31 C42 50.47, 34.66 52.58, 28.83 53.24 C23.01 53.9, 15.76 53.47, 11.24 50.28 C6.71 47.08, 3.18 39.69, 1.68 34.07 C0.17 28.44, 0.15 21.65, 2.19 16.52 C4.23 11.4, 8.21 5.72, 13.92 3.34 C19.64 0.96, 31.91 2.07, 36.49 2.25 C41.07 2.43, 41.39 3.87, 41.41 4.44 M15.99 3.15 C20.71 0.67, 27.07 0.63, 32.4 2.12 C37.72 3.61, 44.58 7.73, 47.93 12.09 C51.27 16.45, 52.92 22.52, 52.48 28.28 C52.04 34.04, 49.08 42.4, 45.3 46.66 C41.53 50.92, 35.16 53.55, 29.8 53.85 C24.44 54.16, 17.71 51.62, 13.15 48.49 C8.6 45.36, 4.31 40.38, 2.44 35.07 C0.58 29.76, 0.12 22.21, 1.97 16.64 C3.81 11.06, 11.51 4.05, 13.52 1.62 C15.54 -0.82, 13.83 1.18, 14.05 2.04" stroke="#000000" stroke-width="1" fill="none"></path></g><g stroke-linecap="round"><g transform="translate(148.8180690708126 196.98495223268958) rotate(0 56.770603938528666 34.809637775860494)"><path d="M0.56 -0.87 C19.32 10.72, 93.31 58.85, 111.99 70.49 M-0.61 1.29 C18.57 12.48, 95.45 57.44, 114.15 68.91" stroke="#000000" stroke-width="1" fill="none"></path></g></g><mask></mask><g stroke-linecap="round" transform="translate(385.16738591492935 260.5) rotate(0 25.5 23)"><path d="M27.16 -0.07 C32.21 0.25, 39.69 3.39, 43.7 6.95 C47.7 10.5, 50.68 16.31, 51.18 21.29 C51.69 26.26, 50.06 32.68, 46.74 36.81 C43.41 40.94, 36.69 44.97, 31.24 46.07 C25.79 47.17, 18.83 45.8, 14.03 43.39 C9.23 40.98, 4.49 35.92, 2.45 31.61 C0.42 27.3, 0.33 22.1, 1.82 17.53 C3.3 12.97, 6.46 7.15, 11.39 4.21 C16.31 1.27, 27.39 0.18, 31.36 -0.13 C35.34 -0.45, 35.24 1.75, 35.27 2.31 M26 1.27 C31.28 1.08, 38.57 3.87, 42.51 6.73 C46.45 9.59, 48.61 13.67, 49.62 18.44 C50.63 23.22, 51.09 30.85, 48.54 35.39 C46 39.94, 39.55 44.18, 34.36 45.72 C29.17 47.27, 22.81 46.49, 17.41 44.67 C12.02 42.85, 4.62 39, 2 34.8 C-0.61 30.6, 0.51 24.49, 1.73 19.46 C2.94 14.44, 5.06 7.71, 9.31 4.64 C13.55 1.57, 24.42 1.99, 27.2 1.06 C29.98 0.13, 26.06 -1.31, 26 -0.93" stroke="#000000" stroke-width="1" fill="none"></path></g><g stroke-linecap="round"><g transform="translate(358.93368742038433 210.87994346637566) rotate(0 18.482660158083604 26.567355167596475)"><path d="M0.24 0.97 C6.03 9.65, 29.82 43.08, 35.9 51.7 M-1.1 0.43 C4.95 9.26, 31.91 43.78, 38.07 52.7" stroke="#000000" stroke-width="1" fill="none"></path></g></g><mask></mask><g stroke-linecap="round" transform="translate(488.16738591492935 251.5) rotate(0 26.5 27)"><path d="M24.4 0.15 C29.84 -0.62, 37.66 1.84, 42.17 5.27 C46.69 8.71, 50.18 15.3, 51.49 20.76 C52.81 26.22, 52.35 33.05, 50.09 38.02 C47.83 42.99, 42.84 47.94, 37.92 50.57 C33 53.21, 26.03 55.13, 20.56 53.82 C15.09 52.51, 8.54 47.7, 5.11 42.72 C1.67 37.73, -0.57 29.67, -0.03 23.91 C0.5 18.16, 3.99 12.14, 8.31 8.21 C12.63 4.29, 22.87 1.69, 25.91 0.37 C28.95 -0.96, 26.49 -0.1, 26.54 0.28 M36.23 1.19 C41.49 3.02, 48.86 10.03, 51.65 15.58 C54.44 21.14, 54.37 28.9, 52.98 34.5 C51.59 40.09, 48.21 45.78, 43.3 49.16 C38.39 52.53, 29.18 55.05, 23.51 54.76 C17.84 54.48, 13.21 51.67, 9.26 47.44 C5.31 43.22, 0.43 35.17, -0.19 29.41 C-0.8 23.65, 2.37 17.87, 5.58 12.91 C8.8 7.94, 13.67 1.21, 19.09 -0.37 C24.5 -1.95, 35.06 2.76, 38.08 3.41 C41.1 4.06, 37.66 3.32, 37.21 3.52" stroke="#000000" stroke-width="1" fill="none"></path></g><g stroke-linecap="round"><g transform="translate(380.2925484067746 191.4755571504894) rotate(0 56.5555286614773 33.25368077658328)"><path d="M-0.21 -0.04 C19.11 11.4, 95.71 56.28, 114.9 67.61 M-1.78 -1.1 C17.47 10.05, 94.64 54.48, 113.97 65.65" stroke="#000000" stroke-width="1" fill="none"></path></g></g><mask></mask><g stroke-linecap="round" transform="translate(273.66738591492935 10) rotate(0 40 27)"><path d="M13.5 0 M13.5 0 C33.69 0.83, 56.78 1.29, 66.5 0 M13.5 0 C25.47 0.48, 37.05 -0.82, 66.5 0 M66.5 0 C74.25 -1.46, 78.08 6.16, 80 13.5 M66.5 0 C77.01 1.04, 79.25 6.76, 80 13.5 M80 13.5 C80.58 17.07, 80.74 25.35, 80 40.5 M80 13.5 C80.99 21.91, 81.02 32.36, 80 40.5 M80 40.5 C79.13 51.02, 74.13 55.25, 66.5 54 M80 40.5 C81.83 50.78, 76.08 55.22, 66.5 54 M66.5 54 C48.49 53.43, 32.45 55.65, 13.5 54 M66.5 54 C47.22 53.46, 28.23 53.63, 13.5 54 M13.5 54 C3.17 52.36, -1.06 51.25, 0 40.5 M13.5 54 C5.88 53.54, 1.62 48.59, 0 40.5 M0 40.5 C-0.91 33.04, -0.93 25.67, 0 13.5 M0 40.5 C0.17 30.25, -0.38 20.95, 0 13.5 M0 13.5 C1.48 3.04, 4.54 -1.2, 13.5 0 M0 13.5 C1.55 4.39, 5.44 -0.55, 13.5 0" stroke="#000000" stroke-width="1" fill="none"></path></g><g transform="translate(291.0994003802614 19.5) rotate(0 22.56798553466797 17.5)"><text x="22.56798553466797" y="0" font-family="Virgil, Segoe UI Emoji" font-size="28px" fill="#000000" text-anchor="middle" style="white-space: pre;" direction="ltr" dominant-baseline="text-before-edge">top</text></g><g stroke-linecap="round"><g transform="translate(517.3336929574646 329.75) rotate(0 -49.554008097043265 -0.010506504122190563)"><path d="M0.25 -0.2 C-16.35 -0.22, -82.21 -0.21, -98.96 -0.13 M-1.08 -1.35 C-17.8 -1.18, -82.68 0.82, -99.36 1.33" stroke="#e03131" stroke-width="2" fill="none"></path></g><g transform="translate(517.3336929574646 329.75) rotate(0 -49.554008097043265 -0.010506504122190563)"><path d="M-71.83 -8.04 C-81.59 -6.2, -90.8 -0.56, -98.37 -0.18 M-72.04 -9.94 C-82.23 -4.59, -91.18 -1, -99.41 0.99" stroke="#e03131" stroke-width="2" fill="none"></path></g><g transform="translate(517.3336929574646 329.75) rotate(0 -49.554008097043265 -0.010506504122190563)"><path d="M-71.21 12.47 C-81.18 7.05, -90.61 5.43, -98.37 -0.18 M-71.42 10.57 C-81.91 8.32, -91.09 4.32, -99.41 0.99" stroke="#e03131" stroke-width="2" fill="none"></path></g></g><mask></mask><g stroke-linecap="round"><g transform="translate(366.33369295746456 294.75) rotate(0 -33.31371709585187 -52.6864080887288)"><path d="M0.75 -0.46 C-10.18 -17.9, -55.07 -87.62, -66.28 -104.92 M-0.31 -1.74 C-11.36 -19.04, -56.17 -86.98, -67.38 -103.86" stroke="#e03131" stroke-width="2" fill="none"></path></g><g transform="translate(366.33369295746456 294.75) rotate(0 -33.31371709585187 -52.6864080887288)"><path d="M-44.04 -86.47 C-50.59 -91.05, -55.26 -92.51, -67.2 -103.95 M-43.09 -85.4 C-47.62 -89.88, -52.3 -93.66, -67.84 -104.17" stroke="#e03131" stroke-width="2" fill="none"></path></g><g transform="translate(366.33369295746456 294.75) rotate(0 -33.31371709585187 -52.6864080887288)"><path d="M-61.16 -75.16 C-63.55 -82.57, -64.07 -86.78, -67.2 -103.95 M-60.2 -74.08 C-61.08 -80.89, -62.22 -87.02, -67.84 -104.17" stroke="#e03131" stroke-width="2" fill="none"></path></g></g><mask></mask><g stroke-linecap="round"><g transform="translate(311.33369295746456 125.75) rotate(0 -115.06854250981473 -23.260033319238573)"><path d="M0.04 -1.15 C-38.32 -8.64, -191.22 -38.1, -229.84 -45.86 M-1.4 0.86 C-39.85 -6.86, -191.62 -39.45, -230.18 -47.38" stroke="#e03131" stroke-width="2" fill="none"></path></g><g transform="translate(311.33369295746456 125.75) rotate(0 -115.06854250981473 -23.260033319238573)"><path d="M-202.39 -49.68 C-208.36 -51.3, -221.14 -50.73, -229.62 -48.96 M-199.85 -52.06 C-210.66 -51.09, -220.85 -47.94, -230.97 -47.73" stroke="#e03131" stroke-width="2" fill="none"></path></g><g transform="translate(311.33369295746456 125.75) rotate(0 -115.06854250981473 -23.260033319238573)"><path d="M-206.62 -29.6 C-211.05 -37.81, -222.44 -43.84, -229.62 -48.96 M-204.08 -31.97 C-213.33 -37.6, -222.14 -41.03, -230.97 -47.73" stroke="#e03131" stroke-width="2" fill="none"></path></g></g><mask></mask><g transform="translate(31.333692957464564 33.75) rotate(0 10.763999938964844 22.5)"><text x="0" y="0" font-family="Virgil, Segoe UI Emoji" font-size="36px" fill="#e03131" text-anchor="start" style="white-space: pre;" direction="ltr" dominant-baseline="text-before-edge">X</text></g></svg>